  0
SECTION
  2
HEADER
  9
$ACADVER
  1
AC1014
  9
$ACADMAINTVER
 70
     9
  9
$DWGCODEPAGE
  3
ANSI_932
  9
$INSBASE
 10
0.0
 20
0.0
 30
0.0
  9
$EXTMIN
 10
1.000000000000000E+20
 20
1.000000000000000E+20
 30
1.000000000000000E+20
  9
$EXTMAX
 10
-1.000000000000000E+20
 20
-1.000000000000000E+20
 30
-1.000000000000000E+20
  9
$LIMMIN
 10
0.0
 20
0.0
  9
$LIMMAX
 10
12.0
 20
9.0
  9
$ORTHOMODE
 70
     0
  9
$REGENMODE
 70
     1
  9
$FILLMODE
 70
     1
  9
$QTEXTMODE
 70
     0
  9
$MIRRTEXT
 70
     1
  9
$DRAGMODE
 70
     2
  9
$LTSCALE
 40
1.0
  9
$OSMODE
 70
    37
  9
$ATTMODE
 70
     1
  9
$TEXTSIZE
 40
0.2
  9
$TRACEWID
 40
0.05
  9
$TEXTSTYLE
  7
STANDARD
  9
$CLAYER
  8
0
  9
$CELTYPE
  6
BYLAYER
  9
$CECOLOR
 62
   256
  9
$CELTSCALE
 40
1.0
  9
$DELOBJ
 70
     1
  9
$DISPSILH
 70
     0
  9
$DIMSCALE
 40
1.0
  9
$DIMASZ
 40
0.18
  9
$DIMEXO
 40
0.0625
  9
$DIMDLI
 40
0.38
  9
$DIMRND
 40
0.0
  9
$DIMDLE
 40
0.0
  9
$DIMEXE
 40
0.18
  9
$DIMTP
 40
0.0
  9
$DIMTM
 40
0.0
  9
$DIMTXT
 40
0.18
  9
$DIMCEN
 40
0.09
  9
$DIMTSZ
 40
0.0
  9
$DIMTOL
 70
     0
  9
$DIMLIM
 70
     0
  9
$DIMTIH
 70
     1
  9
$DIMTOH
 70
     1
  9
$DIMSE1
 70
     0
  9
$DIMSE2
 70
     0
  9
$DIMTAD
 70
     0
  9
$DIMZIN
 70
     0
  9
$DIMBLK
  1

  9
$DIMASO
 70
     1
  9
$DIMSHO
 70
     1
  9
$DIMPOST
  1

  9
$DIMAPOST
  1

  9
$DIMALT
 70
     0
  9
$DIMALTD
 70
     2
  9
$DIMALTF
 40
25.4
  9
$DIMLFAC
 40
1.0
  9
$DIMTOFL
 70
     0
  9
$DIMTVP
 40
0.0
  9
$DIMTIX
 70
     0
  9
$DIMSOXD
 70
     0
  9
$DIMSAH
 70
     0
  9
$DIMBLK1
  1

  9
$DIMBLK2
  1

  9
$DIMSTYLE
  2
STANDARD
  9
$DIMCLRD
 70
     0
  9
$DIMCLRE
 70
     0
  9
$DIMCLRT
 70
     0
  9
$DIMTFAC
 40
1.0
  9
$DIMGAP
 40
0.09
  9
$DIMJUST
 70
     0
  9
$DIMSD1
 70
     0
  9
$DIMSD2
 70
     0
  9
$DIMTOLJ
 70
     1
  9
$DIMTZIN
 70
     0
  9
$DIMALTZ
 70
     0
  9
$DIMALTTZ
 70
     0
  9
$DIMFIT
 70
     3
  9
$DIMUPT
 70
     0
  9
$DIMUNIT
 70
     2
  9
$DIMDEC
 70
     4
  9
$DIMTDEC
 70
     4
  9
$DIMALTU
 70
     2
  9
$DIMALTTD
 70
     2
  9
$DIMTXSTY
  7
STANDARD
  9
$DIMAUNIT
 70
     0
  9
$LUNITS
 70
     2
  9
$LUPREC
 70
     4
  9
$SKETCHINC
 40
0.1
  9
$FILLETRAD
 40
0.5
  9
$AUNITS
 70
     0
  9
$AUPREC
 70
     0
  9
$MENU
  1
.
  9
$ELEVATION
 40
0.0
  9
$PELEVATION
 40
0.0
  9
$THICKNESS
 40
0.0
  9
$LIMCHECK
 70
     0
  9
$CHAMFERA
 40
0.5
  9
$CHAMFERB
 40
0.5
  9
$CHAMFERC
 40
1.0
  9
$CHAMFERD
 40
0.0
  9
$SKPOLY
 70
     0
  9
$TDCREATE
 40
2458993.458016377
  9
$TDUPDATE
 40
2458993.458016586
  9
$TDINDWG
 40
0.0000000116
  9
$TDUSRTIMER
 40
0.0000000116
  9
$USRTIMER
 70
     1
  9
$ANGBASE
 50
0.0
  9
$ANGDIR
 70
     0
  9
$PDMODE
 70
     0
  9
$PDSIZE
 40
0.0
  9
$PLINEWID
 40
0.0
  9
$COORDS
 70
     1
  9
$SPLFRAME
 70
     0
  9
$SPLINETYPE
 70
     6
  9
$SPLINESEGS
 70
     8
  9
$ATTDIA
 70
     0
  9
$ATTREQ
 70
     1
  9
$HANDLING
 70
     1
  9
$HANDSEED
  5
AA
  9
$SURFTAB1
 70
     6
  9
$SURFTAB2
 70
     6
  9
$SURFTYPE
 70
     6
  9
$SURFU
 70
     6
  9
$SURFV
 70
     6
  9
$UCSNAME
  2

  9
$UCSORG
 10
0.0
 20
0.0
 30
0.0
  9
$UCSXDIR
 10
1.0
 20
0.0
 30
0.0
  9
$UCSYDIR
 10
0.0
 20
1.0
 30
0.0
  9
$PUCSNAME
  2

  9
$PUCSORG
 10
0.0
 20
0.0
 30
0.0
  9
$PUCSXDIR
 10
1.0
 20
0.0
 30
0.0
  9
$PUCSYDIR
 10
0.0
 20
1.0
 30
0.0
  9
$USERI1
 70
     0
  9
$USERI2
 70
     0
  9
$USERI3
 70
     0
  9
$USERI4
 70
     0
  9
$USERI5
 70
     0
  9
$USERR1
 40
0.0
  9
$USERR2
 40
0.0
  9
$USERR3
 40
0.0
  9
$USERR4
 40
0.0
  9
$USERR5
 40
0.0
  9
$WORLDVIEW
 70
     1
  9
$SHADEDGE
 70
     3
  9
$SHADEDIF
 70
    70
  9
$TILEMODE
 70
     1
  9
$MAXACTVP
 70
    64
  9
$PINSBASE
 10
0.0
 20
0.0
 30
0.0
  9
$PLIMCHECK
 70
     0
  9
$PEXTMIN
 10
1.000000000000000E+20
 20
1.000000000000000E+20
 30
1.000000000000000E+20
  9
$PEXTMAX
 10
-1.000000000000000E+20
 20
-1.000000000000000E+20
 30
-1.000000000000000E+20
  9
$PLIMMIN
 10
0.0
 20
0.0
  9
$PLIMMAX
 10
12.0
 20
9.0
  9
$UNITMODE
 70
     0
  9
$VISRETAIN
 70
     1
  9
$PLINEGEN
 70
     0
  9
$PSLTSCALE
 70
     1
  9
$TREEDEPTH
 70
  3020
  9
$PICKSTYLE
 70
     1
  9
$CMLSTYLE
  2
STANDARD
  9
$CMLJUST
 70
     0
  9
$CMLSCALE
 40
1.0
  9
$PROXYGRAPHICS
 70
     1
  9
$MEASUREMENT
 70
     0
  0
ENDSEC
  0
SECTION
  2
CLASSES
  0
CLASS
  1
ACDBDICTIONARYWDFLT
  2
AcDbDictionaryWithDefault
  3
ObjectDBX Classes
 90
        0
280
     0
281
     0
  0
CLASS
  1
VISUALSTYLE
  2
AcDbVisualStyle
  3
ObjectDBX Classes
 90
     4095
280
     0
281
     0
  0
CLASS
  1
MATERIAL
  2
AcDbMaterial
  3
ObjectDBX Classes
 90
     1153
280
     0
281
     0
  0
CLASS
  1
SUN
  2
AcDbSun
  3
SCENEOE
 90
     1024
280
     0
281
     0
  0
CLASS
  1
DICTIONARYVAR
  2
AcDbDictionaryVar
  3
ObjectDBX Classes
 90
        0
280
     0
281
     0
  0
CLASS
  1
XRECORD
  2
AcDbXrecord
  3
AutoCAD 2000
 90
        0
280
     0
281
     0
  0
CLASS
  1
LWPOLYLINE
  2
AcDbPolyline
  3
AutoCAD 2000
 90
        0
280
     0
281
     1
  0
CLASS
  1
HATCH
  2
AcDbHatch
  3
AutoCAD 2000
 90
        0
280
     0
281
     1
  0
CLASS
  1
ACDBPLACEHOLDER
  2
AcDbPlaceHolder
  3
ObjectDBX Classes
 90
        0
280
     0
281
     0
  0
CLASS
  1
LAYOUT
  2
AcDbLayout
  3
ObjectDBX Classes
 90
        0
280
     0
281
     0
  0
ENDSEC
  0
SECTION
  2
TABLES
  0
TABLE
  2
VPORT
  5
8
330
0
100
AcDbSymbolTable
 70
     1
  0
VPORT
  5
29
330
8
100
AcDbSymbolTableRecord
100
AcDbViewportTableRecord
  2
*ACTIVE
 70
     0
 10
0.0
 20
0.0
 11
1.0
 21
1.0
 12
0.0
 22
0.0
 13
0.0
 23
0.0
 14
0.5
 24
0.5
 15
0.5
 25
0.5
 16
0.0
 26
0.0
 36
1.0
 17
64.24999998393108
 27
-45.499999988623
 37
0.0
 40
90.99999997724599
 41
1.412087912087833
 42
50.0
 43
0.0
 44
0.0
 50
0.0
 51
0.0
 71
     0
 72
   100
 73
     1
 74
     3
 75
     0
 76
     0
 77
     0
 78
     0
  0
ENDTAB
  0
TABLE
  2
LTYPE
  5
5
330
0
100
AcDbSymbolTable
 70
     1
  0
LTYPE
  5
14
330
5
100
AcDbSymbolTableRecord
100
AcDbLinetypeTableRecord
  2
BYBLOCK
 70
     0
  3

 72
    65
 73
     0
 40
0.0
  0
LTYPE
  5
15
330
5
100
AcDbSymbolTableRecord
100
AcDbLinetypeTableRecord
  2
BYLAYER
 70
     0
  3

 72
    65
 73
     0
 40
0.0
  0
LTYPE
  5
16
330
5
100
AcDbSymbolTableRecord
100
AcDbLinetypeTableRecord
  2
CONTINUOUS
 70
     0
  3
Solid line
 72
    65
 73
     0
 40
0.0
  0
ENDTAB
  0
TABLE
  2
LAYER
  5
2
330
0
100
AcDbSymbolTable
 70
     2
  0
LAYER
  5
10
330
2
100
AcDbSymbolTableRecord
100
AcDbLayerTableRecord
  2
0
 70
     0
 62
     7
  6
CONTINUOUS
  0
LAYER
  5
40
330
2
100
AcDbSymbolTableRecord
100
AcDbLayerTableRecord
  2
_U_30EC_U_30A4_U_30E4_U_30
 70
     0
 62
     7
  6
CONTINUOUS
  0
ENDTAB
  0
TABLE
  2
STYLE
  5
3
330
0
100
AcDbSymbolTable
 70
     1
  0
STYLE
  5
11
330
3
100
AcDbSymbolTableRecord
100
AcDbTextStyleTableRecord
  2
STANDARD
 70
     0
 40
0.0
 41
1.0
 50
0.0
 71
     0
 42
0.2
  3
txt
  4

  0
ENDTAB
  0
TABLE
  2
VIEW
  5
6
330
0
100
AcDbSymbolTable
 70
     0
  0
ENDTAB
  0
TABLE
  2
UCS
  5
7
330
0
100
AcDbSymbolTable
 70
     0
  0
ENDTAB
  0
TABLE
  2
APPID
  5
9
330
0
100
AcDbSymbolTable
 70
     1
  0
APPID
  5
12
330
9
100
AcDbSymbolTableRecord
100
AcDbRegAppTableRecord
  2
ACAD
 70
     0
  0
ENDTAB
  0
TABLE
  2
DIMSTYLE
  5
A
330
0
100
AcDbSymbolTable
 70
     1
  0
DIMSTYLE
105
27
330
A
100
AcDbSymbolTableRecord
100
AcDbDimStyleTableRecord
  2
STANDARD
 70
     0
  3

  4

  5

  6

  7

 40
1.0
 41
0.18
 42
0.0625
 43
0.38
 44
0.18
 45
0.0
 46
0.0
 47
0.0
 48
0.0
140
0.18
141
0.09
142
0.0
143
25.4
144
1.0
145
0.0
146
1.0
147
0.09
 71
     0
 72
     0
 73
     1
 74
     1
 75
     0
 76
     0
 77
     0
 78
     0
170
     0
171
     2
172
     0
173
     0
174
     0
175
     0
176
     0
177
     0
178
     0
270
     2
271
     4
272
     4
273
     2
274
     2
340
11
275
     0
280
     0
281
     0
282
     0
283
     1
284
     0
285
     0
286
     0
287
     3
288
     0
  0
ENDTAB
  0
TABLE
  2
BLOCK_RECORD
  5
1
330
0
100
AcDbSymbolTable
 70
     2
  0
BLOCK_RECORD
  5
1F
330
1
100
AcDbSymbolTableRecord
100
AcDbBlockTableRecord
  2
*MODEL_SPACE
  0
BLOCK_RECORD
  5
1B
330
1
100
AcDbSymbolTableRecord
100
AcDbBlockTableRecord
  2
*PAPER_SPACE
  0
BLOCK_RECORD
  5
41
330
1
100
AcDbSymbolTableRecord
100
AcDbBlockTableRecord
  2
BLOCK_2
  0
ENDTAB
  0
ENDSEC
  0
SECTION
  2
BLOCKS
  0
BLOCK
  5
20
330
1F
100
AcDbEntity
  8
0
100
AcDbBlockBegin
  2
*MODEL_SPACE
 70
     0
 10
0.0
 20
0.0
 30
0.0
  3
*MODEL_SPACE
  1

  0
ENDBLK
  5
21
330
1F
100
AcDbEntity
  8
0
100
AcDbBlockEnd
  0
BLOCK
  5
1C
330
1B
100
AcDbEntity
 67
     1
  8
0
100
AcDbBlockBegin
  2
*PAPER_SPACE
 70
     0
 10
0.0
 20
0.0
 30
0.0
  3
*PAPER_SPACE
  1

  0
ENDBLK
  5
1D
330
1B
100
AcDbEntity
 67
     1
  8
0
100
AcDbBlockEnd
  0
BLOCK
  5
43
330
41
100
AcDbEntity
  8
0
100
AcDbBlockBegin
  2
BLOCK_2
 70
     0
 10
0.0
 20
0.0
 30
0.0
  3
BLOCK_2
  1

  0
SPLINE
  5
45
330
41
100
AcDbEntity
  8
_U_30EC_U_30A4_U_30E4_U_30
100
AcDbSpline
210
0.0
220
0.0
230
1.0
 70
    11
 71
     3
 72
    68
 73
    64
 74
     0
 42
0.0000000001
 43
0.0000000001
 12
1.0
 22
0.0
 32
0.0
 13
1.0
 23
0.0
 33
0.0
 40
0.0
 40
0.0
 40
0.0
 40
0.0
 40
1.0
 40
1.0
 40
1.0
 40
2.0
 40
2.0
 40
2.0
 40
3.0
 40
3.0
 40
3.0
 40
4.0
 40
4.0
 40
4.0
 40
5.0
 40
5.0
 40
5.0
 40
6.0
 40
6.0
 40
6.0
 40
7.0
 40
7.0
 40
7.0
 40
8.0
 40
8.0
 40
8.0
 40
9.0
 40
9.0
 40
9.0
 40
10.0
 40
10.0
 40
10.0
 40
11.0
 40
11.0
 40
11.0
 40
12.0
 40
12.0
 40
12.0
 40
13.0
 40
13.0
 40
13.0
 40
14.0
 40
14.0
 40
14.0
 40
15.0
 40
15.0
 40
15.0
 40
16.0
 40
16.0
 40
16.0
 40
17.0
 40
17.0
 40
17.0
 40
18.0
 40
18.0
 40
18.0
 40
19.0
 40
19.0
 40
19.0
 40
20.0
 40
20.0
 40
20.0
 40
21.0
 40
21.0
 40
21.0
 40
21.0
 10
20.84666808451292
 20
-51.69664721597949
 30
0.0
 10
20.84666808451292
 20
-51.69664721597949
 30
0.0
 10
20.84666808451292
 20
-53.01268385308044
 30
0.0
 10
20.84666808451292
 20
-53.01268385308044
 30
0.0
 10
20.84666808451292
 20
-56.14566433044702
 30
0.0
 10
21.39193607319914
 20
-57.14563037071551
 30
0.0
 10
23.02589167319406
 20
-57.14563037071551
 30
0.0
 10
24.29756752477411
 20
-57.14563037071551
 30
0.0
 10
24.93340545056397
 20
-56.10130354492579
 30
0.0
 10
24.93340545056397
 20
-54.14942898203562
 30
0.0
 10
24.93340545056397
 20
-52.15134526756208
 30
0.0
 10
24.43434661346144
 20
-50.97023935308567
 30
0.0
 10
22.34569296188394
 20
-48.20138699019836
 30
0.0
 10
22.34569296188394
 20
-48.20138699019836
 30
0.0
 10
20.25703931030643
 20
-45.11461566441612
 30
0.0
 10
20.25703931030643
 20
-45.11461566441612
 30
0.0
 10
17.6693268216264
 20
-41.20901817257234
 30
0.0
 10
16.80613987004524
 20
-39.12036452099483
 30
0.0
 10
16.80613987004524
 20
-36.44208209521084
 30
0.0
 10
16.80613987004524
 20
-32.44776303232686
 30
0.0
 10
19.21271248451768
 20
-29.90441132916709
 30
0.0
 10
23.02589167319406
 20
-29.90441132916709
 30
0.0
 10
25.88716233924908
 20
-29.90441132916709
 30
0.0
 10
27.97581599082659
 20
-31.53836692916201
 30
0.0
 10
28.56544476503275
 20
-34.3090676581134
 30
0.0
 10
28.79279379082405
 20
-35.44396442100579
 30
0.0
 10
28.79279379082405
 20
-35.57889514362969
 30
0.0
 10
28.79279379082405
 20
-38.07603769520608
 30
0.0
 10
28.79279379082405
 20
-38.07603769520608
 30
0.0
 10
24.66169563925274
 20
-38.48452659520497
 30
0.0
 10
24.66169563925274
 20
-38.48452659520497
 30
0.0
 10
24.66169563925274
 20
-36.94114093231337
 30
0.0
 10
24.61548648766904
 20
-36.3977213096909
 30
0.0
 10
24.52491655056508
 20
-35.76188338390072
 30
0.0
 10
24.38813746187774
 20
-34.53641668390437
 30
0.0
 10
23.70793875056762
 20
-33.85436960653081
 30
0.0
 10
22.75418186188283
 20
-33.85436960653081
 30
0.0
 10
21.61928509899012
 20
-33.85436960653081
 30
0.0
 10
20.98344717320025
 20
-34.8543356467993
 30
0.0
 10
20.98344717320025
 20
-36.66943112100213
 30
0.0
 10
20.98344717320025
 20
-38.53073574678834
 30
0.0
 10
21.16458704740785
 20
-38.93922464678724
 30
0.0
 10
23.97964856187918
 20
-43.16089273546251
 30
0.0
 10
23.97964856187918
 20
-43.16089273546251
 30
0.0
 10
26.11451136504006
 20
-46.24951242730819
 30
0.0
 10
26.11451136504006
 20
-46.24951242730819
 30
0.0
 10
28.06638592793023
 20
-49.1089347273001
 30
0.0
 10
29.15507353923924
 20
-52.1957060530833
 30
0.0
 10
29.15507353923924
 20
-54.78341854176269
 30
0.0
 10
29.15507353923924
 20
-58.82394675623101
 30
0.0
 10
26.93148916503784
 20
-61.09558864807923
 30
0.0
 10
22.98153088767412
 20
-61.09558864807923
 30
0.0
 10
20.7117373618887
 20
-61.09558864807923
 30
0.0
 10
19.12214254741372
 20
-60.36918078518541
 30
0.0
 10
17.94103663293795
 20
-58.77958597070978
 30
0.0
 10
16.94291895873258
 20
-57.41734018202674
 30
0.0
 10
16.62499999583764
 20
-56.14566433044702
 30
0.0
 10
16.62499999583764
 20
-53.5135910562464
 30
0.0
 10
16.62499999583764
 20
-52.8777531304559
 30
0.0
 10
16.62499999583764
 20
-52.60419495308123
 30
0.0
 10
16.67120914742102
 20
-51.8777870901874
 30
0.0
 10
16.67120914742102
 20
-51.8777870901874
 30
0.0
 10
20.84666808451292
 20
-51.69664721597949
 30
0.0
 10
20.84666808451292
 20
-51.69664721597949
 30
0.0
  0
HATCH
  5
46
330
41
100
AcDbEntity
  8
_U_30EC_U_30A4_U_30E4_U_30
 62
     7
100
AcDbHatch
 10
0.0
 20
0.0
 30
0.0
210
0.0
220
0.0
230
1.0
  2
SOLID
 70
     1
 71
     0
 91
        1
 92
        1
 93
        1
 72
     4
 94
        3
 73
     0
 74
     1
 95
       68
 96
       64
 40
0.0
 40
0.0
 40
0.0
 40
0.0
 40
1.0
 40
1.0
 40
1.0
 40
2.0
 40
2.0
 40
2.0
 40
3.0
 40
3.0
 40
3.0
 40
4.0
 40
4.0
 40
4.0
 40
5.0
 40
5.0
 40
5.0
 40
6.0
 40
6.0
 40
6.0
 40
7.0
 40
7.0
 40
7.0
 40
8.0
 40
8.0
 40
8.0
 40
9.0
 40
9.0
 40
9.0
 40
10.0
 40
10.0
 40
10.0
 40
11.0
 40
11.0
 40
11.0
 40
12.0
 40
12.0
 40
12.0
 40
13.0
 40
13.0
 40
13.0
 40
14.0
 40
14.0
 40
14.0
 40
15.0
 40
15.0
 40
15.0
 40
16.0
 40
16.0
 40
16.0
 40
17.0
 40
17.0
 40
17.0
 40
18.0
 40
18.0
 40
18.0
 40
19.0
 40
19.0
 40
19.0
 40
20.0
 40
20.0
 40
20.0
 40
21.0
 40
21.0
 40
21.0
 40
21.0
 10
20.84666808451292
 20
-51.69664721597949
 10
20.84666808451292
 20
-51.69664721597949
 10
20.84666808451292
 20
-53.01268385308044
 10
20.84666808451292
 20
-53.01268385308044
 10
20.84666808451292
 20
-56.14566433044702
 10
21.39193607319914
 20
-57.14563037071551
 10
23.02589167319406
 20
-57.14563037071551
 10
24.29756752477411
 20
-57.14563037071551
 10
24.93340545056397
 20
-56.10130354492579
 10
24.93340545056397
 20
-54.14942898203562
 10
24.93340545056397
 20
-52.15134526756208
 10
24.43434661346144
 20
-50.97023935308567
 10
22.34569296188394
 20
-48.20138699019836
 10
22.34569296188394
 20
-48.20138699019836
 10
20.25703931030643
 20
-45.11461566441612
 10
20.25703931030643
 20
-45.11461566441612
 10
17.6693268216264
 20
-41.20901817257234
 10
16.80613987004524
 20
-39.12036452099483
 10
16.80613987004524
 20
-36.44208209521084
 10
16.80613987004524
 20
-32.44776303232686
 10
19.21271248451768
 20
-29.90441132916709
 10
23.02589167319406
 20
-29.90441132916709
 10
25.88716233924908
 20
-29.90441132916709
 10
27.97581599082659
 20
-31.53836692916201
 10
28.56544476503275
 20
-34.3090676581134
 10
28.79279379082405
 20
-35.44396442100579
 10
28.79279379082405
 20
-35.57889514362969
 10
28.79279379082405
 20
-38.07603769520608
 10
28.79279379082405
 20
-38.07603769520608
 10
24.66169563925274
 20
-38.48452659520497
 10
24.66169563925274
 20
-38.48452659520497
 10
24.66169563925274
 20
-36.94114093231337
 10
24.61548648766904
 20
-36.3977213096909
 10
24.52491655056508
 20
-35.76188338390072
 10
24.38813746187774
 20
-34.53641668390437
 10
23.70793875056762
 20
-33.85436960653081
 10
22.75418186188283
 20
-33.85436960653081
 10
21.61928509899012
 20
-33.85436960653081
 10
20.98344717320025
 20
-34.8543356467993
 10
20.98344717320025
 20
-36.66943112100213
 10
20.98344717320025
 20
-38.53073574678834
 10
21.16458704740785
 20
-38.93922464678724
 10
23.97964856187918
 20
-43.16089273546251
 10
23.97964856187918
 20
-43.16089273546251
 10
26.11451136504006
 20
-46.24951242730819
 10
26.11451136504006
 20
-46.24951242730819
 10
28.06638592793023
 20
-49.1089347273001
 10
29.15507353923924
 20
-52.1957060530833
 10
29.15507353923924
 20
-54.78341854176269
 10
29.15507353923924
 20
-58.82394675623101
 10
26.93148916503784
 20
-61.09558864807923
 10
22.98153088767412
 20
-61.09558864807923
 10
20.7117373618887
 20
-61.09558864807923
 10
19.12214254741372
 20
-60.36918078518541
 10
17.94103663293795
 20
-58.77958597070978
 10
16.94291895873258
 20
-57.41734018202674
 10
16.62499999583764
 20
-56.14566433044702
 10
16.62499999583764
 20
-53.5135910562464
 10
16.62499999583764
 20
-52.8777531304559
 10
16.62499999583764
 20
-52.60419495308123
 10
16.67120914742102
 20
-51.8777870901874
 10
16.67120914742102
 20
-51.8777870901874
 10
20.84666808451292
 20
-51.69664721597949
 10
20.84666808451292
 20
-51.69664721597949
 97
        0
 75
     2
 76
     1
 98
        0
  0
POLYLINE
  5
47
330
41
100
AcDbEntity
  8
_U_30EC_U_30A4_U_30E4_U_30
100
AcDb2dPolyline
 66
     1
 10
0.0
 20
0.0
 30
0.0
  0
VERTEX
  5
48
330
47
100
AcDbEntity
  8
_U_30EC_U_30A4_U_30E4_U_30
100
AcDbVertex
100
AcDb2dVertex
 10
43.0104255500577
 20
-30.35910938074936
 30
0.0
  0
VERTEX
  5
49
330
47
100
AcDbEntity
  8
_U_30EC_U_30A4_U_30E4_U_30
100
AcDbVertex
100
AcDb2dVertex
 10
48.09528059031413
 20
-30.35910938074936
 30
0.0
  0
VERTEX
  5
4A
330
47
100
AcDbEntity
  8
_U_30EC_U_30A4_U_30E4_U_30
100
AcDbVertex
100
AcDb2dVertex
 10
48.09528059031413
 20
-60.64089059649664
 30
0.0
  0
VERTEX
  5
4B
330
47
100
AcDbEntity
  8
_U_30EC_U_30A4_U_30E4_U_30
100
AcDbVertex
100
AcDb2dVertex
 10
44.46324127584533
 20
-60.64089059649664
 30
0.0
  0
VERTEX
  5
4C
330
47
100
AcDbEntity
  8
_U_30EC_U_30A4_U_30E4_U_30
100
AcDbVertex
100
AcDb2dVertex
 10
44.46324127584533
 20
-39.25714360968217
 30
0.0
  0
VERTEX
  5
4D
330
47
100
AcDbEntity
  8
_U_30EC_U_30A4_U_30E4_U_30
100
AcDbVertex
100
AcDb2dVertex
 10
40.92177189848019
 20
-60.64089059649664
 30
0.0
  0
VERTEX
  5
4E
330
47
100
AcDbEntity
  8
_U_30EC_U_30A4_U_30E4_U_30
100
AcDbVertex
100
AcDb2dVertex
 10
39.10482805821424
 20
-60.64089059649664
 30
0.0
  0
VERTEX
  5
4F
330
47
100
AcDbEntity
  8
_U_30EC_U_30A4_U_30E4_U_30
100
AcDbVertex
100
AcDb2dVertex
 10
35.56335868084941
 20
-39.25714360968217
 30
0.0
  0
VERTEX
  5
50
330
47
100
AcDbEntity
  8
_U_30EC_U_30A4_U_30E4_U_30
100
AcDbVertex
100
AcDb2dVertex
 10
35.56335868084941
 20
-60.64089059649664
 30
0.0
  0
VERTEX
  5
51
330
47
100
AcDbEntity
  8
_U_30EC_U_30A4_U_30E4_U_30
100
AcDbVertex
100
AcDb2dVertex
 10
32.0237376695477
 20
-60.64089059649664
 30
0.0
  0
VERTEX
  5
52
330
47
100
AcDbEntity
  8
_U_30EC_U_30A4_U_30E4_U_30
100
AcDbVertex
100
AcDb2dVertex
 10
32.0237376695477
 20
-30.35910938074936
 30
0.0
  0
VERTEX
  5
53
330
47
100
AcDbEntity
  8
_U_30EC_U_30A4_U_30E4_U_30
100
AcDbVertex
100
AcDb2dVertex
 10
37.01617440663673
 20
-30.35910938074936
 30
0.0
  0
VERTEX
  5
54
330
47
100
AcDbEntity
  8
_U_30EC_U_30A4_U_30E4_U_30
100
AcDbVertex
100
AcDb2dVertex
 10
40.01237579531566
 20
-45.43253462731105
 30
0.0
  0
VERTEX
  5
55
330
47
100
AcDbEntity
  8
_U_30EC_U_30A4_U_30E4_U_30
100
AcDbVertex
100
AcDb2dVertex
 10
43.0104255500577
 20
-30.35910938074936
 30
0.0
  0
SEQEND
  5
56
330
47
100
AcDbEntity
  8
_U_30EC_U_30A4_U_30E4_U_30
  0
HATCH
  5
57
330
41
100
AcDbEntity
  8
_U_30EC_U_30A4_U_30E4_U_30
 62
     7
100
AcDbHatch
 10
0.0
 20
0.0
 30
0.0
210
0.0
220
0.0
230
1.0
  2
SOLID
 70
     1
 71
     0
 91
        1
 92
        1
 93
       13
 72
     1
 10
43.0104255500577
 20
-30.35910938074936
 11
48.09528059031413
 21
-30.35910938074936
 72
     1
 10
48.09528059031413
 20
-30.35910938074936
 11
48.09528059031413
 21
-60.64089059649664
 72
     1
 10
48.09528059031413
 20
-60.64089059649664
 11
44.46324127584533
 21
-60.64089059649664
 72
     1
 10
44.46324127584533
 20
-60.64089059649664
 11
44.46324127584533
 21
-39.25714360968217
 72
     1
 10
44.46324127584533
 20
-39.25714360968217
 11
40.92177189848019
 21
-60.64089059649664
 72
     1
 10
40.92177189848019
 20
-60.64089059649664
 11
39.10482805821424
 21
-60.64089059649664
 72
     1
 10
39.10482805821424
 20
-60.64089059649664
 11
35.56335868084941
 21
-39.25714360968217
 72
     1
 10
35.56335868084941
 20
-39.25714360968217
 11
35.56335868084941
 21
-60.64089059649664
 72
     1
 10
35.56335868084941
 20
-60.64089059649664
 11
32.0237376695477
 21
-60.64089059649664
 72
     1
 10
32.0237376695477
 20
-60.64089059649664
 11
32.0237376695477
 21
-30.35910938074936
 72
     1
 10
32.0237376695477
 20
-30.35910938074936
 11
37.01617440663673
 21
-30.35910938074936
 72
     1
 10
37.01617440663673
 20
-30.35910938074936
 11
40.01237579531566
 21
-45.43253462731105
 72
     1
 10
40.01237579531566
 20
-45.43253462731105
 11
43.0104255500577
 21
-30.35910938074936
 97
        0
 75
     2
 76
     1
 98
        0
  0
POLYLINE
  5
58
330
41
100
AcDbEntity
  8
_U_30EC_U_30A4_U_30E4_U_30
100
AcDb2dPolyline
 66
     1
 10
0.0
 20
0.0
 30
0.0
  0
VERTEX
  5
59
330
58
100
AcDbEntity
  8
_U_30EC_U_30A4_U_30E4_U_30
100
AcDbVertex
100
AcDb2dVertex
 10
65.31281047035388
 20
-60.64089059649664
 30
0.0
  0
VERTEX
  5
5A
330
58
100
AcDbEntity
  8
_U_30EC_U_30A4_U_30E4_U_30
100
AcDbVertex
100
AcDb2dVertex
 10
60.90815414140726
 20
-60.64089059649664
 30
0.0
  0
VERTEX
  5
5B
330
58
100
AcDbEntity
  8
_U_30EC_U_30A4_U_30E4_U_30
100
AcDbVertex
100
AcDb2dVertex
 10
57.775173664041
 20
-46.34008236441279
 30
0.0
  0
VERTEX
  5
5C
330
58
100
AcDbEntity
  8
_U_30EC_U_30A4_U_30E4_U_30
100
AcDbVertex
100
AcDb2dVertex
 10
55.96007818983848
 20
-51.28815831598156
 30
0.0
  0
VERTEX
  5
5D
330
58
100
AcDbEntity
  8
_U_30EC_U_30A4_U_30E4_U_30
100
AcDbVertex
100
AcDb2dVertex
 10
55.96007818983848
 20
-60.64089059649664
 30
0.0
  0
VERTEX
  5
5E
330
58
100
AcDbEntity
  8
_U_30EC_U_30A4_U_30E4_U_30
100
AcDbVertex
100
AcDb2dVertex
 10
51.73841010116321
 20
-60.64089059649664
 30
0.0
  0
VERTEX
  5
5F
330
58
100
AcDbEntity
  8
_U_30EC_U_30A4_U_30E4_U_30
100
AcDbVertex
100
AcDb2dVertex
 10
51.73841010116321
 20
-30.35910938074936
 30
0.0
  0
VERTEX
  5
60
330
58
100
AcDbEntity
  8
_U_30EC_U_30A4_U_30E4_U_30
100
AcDbVertex
100
AcDb2dVertex
 10
55.96007818983848
 20
-30.35910938074936
 30
0.0
  0
VERTEX
  5
61
330
58
100
AcDbEntity
  8
_U_30EC_U_30A4_U_30E4_U_30
100
AcDbVertex
100
AcDb2dVertex
 10
55.96007818983848
 20
-41.75428616125856
 30
0.0
  0
VERTEX
  5
62
330
58
100
AcDbEntity
  8
_U_30EC_U_30A4_U_30E4_U_30
100
AcDbVertex
100
AcDb2dVertex
 10
60.0911763414098
 20
-30.35910938074936
 30
0.0
  0
VERTEX
  5
63
330
58
100
AcDbEntity
  8
_U_30EC_U_30A4_U_30E4_U_30
100
AcDbVertex
100
AcDb2dVertex
 10
64.40341436718903
 20
-30.35910938074936
 30
0.0
  0
VERTEX
  5
64
330
58
100
AcDbEntity
  8
_U_30EC_U_30A4_U_30E4_U_30
100
AcDbVertex
100
AcDb2dVertex
 10
60.59023517851233
 20
-40.57318024678248
 30
0.0
  0
VERTEX
  5
65
330
58
100
AcDbEntity
  8
_U_30EC_U_30A4_U_30E4_U_30
100
AcDbVertex
100
AcDb2dVertex
 10
65.31281047035388
 20
-60.64089059649664
 30
0.0
  0
SEQEND
  5
66
330
58
100
AcDbEntity
  8
_U_30EC_U_30A4_U_30E4_U_30
  0
HATCH
  5
67
330
41
100
AcDbEntity
  8
_U_30EC_U_30A4_U_30E4_U_30
 62
     7
100
AcDbHatch
 10
0.0
 20
0.0
 30
0.0
210
0.0
220
0.0
230
1.0
  2
SOLID
 70
     1
 71
     0
 91
        1
 92
        1
 93
       12
 72
     1
 10
65.31281047035388
 20
-60.64089059649664
 11
60.90815414140726
 21
-60.64089059649664
 72
     1
 10
60.90815414140726
 20
-60.64089059649664
 11
57.775173664041
 21
-46.34008236441279
 72
     1
 10
57.775173664041
 20
-46.34008236441279
 11
55.96007818983848
 21
-51.28815831598156
 72
     1
 10
55.96007818983848
 20
-51.28815831598156
 11
55.96007818983848
 21
-60.64089059649664
 72
     1
 10
55.96007818983848
 20
-60.64089059649664
 11
51.73841010116321
 21
-60.64089059649664
 72
     1
 10
51.73841010116321
 20
-60.64089059649664
 11
51.73841010116321
 21
-30.35910938074936
 72
     1
 10
51.73841010116321
 20
-30.35910938074936
 11
55.96007818983848
 21
-30.35910938074936
 72
     1
 10
55.96007818983848
 20
-30.35910938074936
 11
55.96007818983848
 21
-41.75428616125856
 72
     1
 10
55.96007818983848
 20
-41.75428616125856
 11
60.0911763414098
 21
-30.35910938074936
 72
     1
 10
60.0911763414098
 20
-30.35910938074936
 11
64.40341436718903
 21
-30.35910938074936
 72
     1
 10
64.40341436718903
 20
-30.35910938074936
 11
60.59023517851233
 21
-40.57318024678248
 72
     1
 10
60.59023517851233
 20
-40.57318024678248
 11
65.31281047035388
 21
-60.64089059649664
 97
        0
 75
     2
 76
     1
 98
        0
  0
POLYLINE
  5
68
330
41
100
AcDbEntity
  8
_U_30EC_U_30A4_U_30E4_U_30
100
AcDb2dPolyline
 66
     1
 10
0.0
 20
0.0
 30
0.0
  0
VERTEX
  5
69
330
68
100
AcDbEntity
  8
_U_30EC_U_30A4_U_30E4_U_30
100
AcDbVertex
100
AcDb2dVertex
 10
71.85972306671418
 20
-34.39963759521704
 30
0.0
  0
VERTEX
  5
6A
330
68
100
AcDbEntity
  8
_U_30EC_U_30A4_U_30E4_U_30
100
AcDbVertex
100
AcDb2dVertex
 10
67.90976478935046
 20
-34.39963759521704
 30
0.0
  0
VERTEX
  5
6B
330
68
100
AcDbEntity
  8
_U_30EC_U_30A4_U_30E4_U_30
100
AcDbVertex
100
AcDb2dVertex
 10
67.90976478935046
 20
-30.35910938074936
 30
0.0
  0
VERTEX
  5
6C
330
68
100
AcDbEntity
  8
_U_30EC_U_30A4_U_30E4_U_30
100
AcDbVertex
100
AcDb2dVertex
 10
71.85972306671418
 20
-30.35910938074936
 30
0.0
  0
VERTEX
  5
6D
330
68
100
AcDbEntity
  8
_U_30EC_U_30A4_U_30E4_U_30
100
AcDbVertex
100
AcDb2dVertex
 10
71.85972306671418
 20
-34.39963759521704
 30
0.0
  0
SEQEND
  5
6E
330
68
100
AcDbEntity
  8
_U_30EC_U_30A4_U_30E4_U_30
  0
POLYLINE
  5
6F
330
41
100
AcDbEntity
  8
_U_30EC_U_30A4_U_30E4_U_30
100
AcDb2dPolyline
 66
     1
 10
0.0
 20
0.0
 30
0.0
  0
VERTEX
  5
70
330
6F
100
AcDbEntity
  8
_U_30EC_U_30A4_U_30E4_U_30
100
AcDbVertex
100
AcDb2dVertex
 10
71.85972306671418
 20
-60.64089059649664
 30
0.0
  0
VERTEX
  5
71
330
6F
100
AcDbEntity
  8
_U_30EC_U_30A4_U_30E4_U_30
100
AcDbVertex
100
AcDb2dVertex
 10
67.90976478935046
 20
-60.64089059649664
 30
0.0
  0
VERTEX
  5
72
330
6F
100
AcDbEntity
  8
_U_30EC_U_30A4_U_30E4_U_30
100
AcDbVertex
100
AcDb2dVertex
 10
67.90976478935046
 20
-38.07603769520608
 30
0.0
  0
VERTEX
  5
73
330
6F
100
AcDbEntity
  8
_U_30EC_U_30A4_U_30E4_U_30
100
AcDbVertex
100
AcDb2dVertex
 10
71.85972306671418
 20
-38.07603769520608
 30
0.0
  0
VERTEX
  5
74
330
6F
100
AcDbEntity
  8
_U_30EC_U_30A4_U_30E4_U_30
100
AcDbVertex
100
AcDb2dVertex
 10
71.85972306671418
 20
-60.64089059649664
 30
0.0
  0
SEQEND
  5
75
330
6F
100
AcDbEntity
  8
_U_30EC_U_30A4_U_30E4_U_30
  0
HATCH
  5
76
330
41
100
AcDbEntity
  8
_U_30EC_U_30A4_U_30E4_U_30
 62
     7
100
AcDbHatch
 10
0.0
 20
0.0
 30
0.0
210
0.0
220
0.0
230
1.0
  2
SOLID
 70
     1
 71
     0
 91
        2
 92
        1
 93
        4
 72
     1
 10
71.85972306671418
 20
-34.39963759521704
 11
67.90976478935046
 21
-34.39963759521704
 72
     1
 10
67.90976478935046
 20
-34.39963759521704
 11
67.90976478935046
 21
-30.35910938074936
 72
     1
 10
67.90976478935046
 20
-30.35910938074936
 11
71.85972306671418
 21
-30.35910938074936
 72
     1
 10
71.85972306671418
 20
-30.35910938074936
 11
71.85972306671418
 21
-34.39963759521704
 97
        0
 92
        1
 93
        4
 72
     1
 10
71.85972306671418
 20
-60.64089059649664
 11
67.90976478935046
 21
-60.64089059649664
 72
     1
 10
67.90976478935046
 20
-60.64089059649664
 11
67.90976478935046
 21
-38.07603769520608
 72
     1
 10
67.90976478935046
 20
-38.07603769520608
 11
71.85972306671418
 21
-38.07603769520608
 72
     1
 10
71.85972306671418
 20
-38.07603769520608
 11
71.85972306671418
 21
-60.64089059649664
 97
        0
 75
     2
 76
     1
 98
        0
  0
SPLINE
  5
77
330
41
100
AcDbEntity
  8
_U_30EC_U_30A4_U_30E4_U_30
100
AcDbSpline
210
0.0
220
0.0
230
1.0
 70
    11
 71
     3
 72
    29
 73
    25
 74
     0
 42
0.0000000001
 43
0.0000000001
 12
1.0
 22
0.0
 32
0.0
 13
1.0
 23
0.0
 33
0.0
 40
0.0
 40
0.0
 40
0.0
 40
0.0
 40
1.0
 40
1.0
 40
1.0
 40
2.0
 40
2.0
 40
2.0
 40
3.0
 40
3.0
 40
3.0
 40
4.0
 40
4.0
 40
4.0
 40
5.0
 40
5.0
 40
5.0
 40
6.0
 40
6.0
 40
6.0
 40
7.0
 40
7.0
 40
7.0
 40
8.0
 40
8.0
 40
8.0
 40
8.0
 10
80.89823311646153
 20
-30.35910938074936
 30
0.0
 10
80.89823311646153
 20
-30.35910938074936
 30
0.0
 10
80.89823311646153
 20
-53.37681196755842
 30
0.0
 10
80.89823311646153
 20
-53.37681196755842
 30
0.0
 10
80.89823311646153
 20
-56.10130354492579
 30
0.0
 10
80.80766317935692
 20
-57.00885128202753
 30
0.0
 10
80.44353506487894
 20
-57.87203823360933
 30
0.0
 10
79.58219647936058
 20
-60.05126182228951
 30
0.0
 10
78.12938075357293
 20
-60.64089059649664
 30
0.0
 10
73.9982826020013
 20
-60.64089059649664
 30
0.0
 10
73.9982826020013
 20
-60.64089059649664
 30
0.0
 10
73.9982826020013
 20
-56.46358329334163
 30
0.0
 10
73.9982826020013
 20
-56.46358329334163
 30
0.0
 10
73.9982826020013
 20
-56.46358329334163
 30
0.0
 10
74.3162015648972
 20
-56.46358329334163
 30
0.0
 10
74.3162015648972
 20
-56.46358329334163
 30
0.0
 10
76.1312970390994
 20
-56.46358329334163
 30
0.0
 10
76.67656502778529
 20
-55.8739545191345
 30
0.0
 10
76.67656502778529
 20
-53.83151001914101
 30
0.0
 10
76.67656502778529
 20
-53.83151001914101
 30
0.0
 10
76.67656502778529
 20
-30.35910938074936
 30
0.0
 10
76.67656502778529
 20
-30.35910938074936
 30
0.0
 10
76.67656502778529
 20
-30.35910938074936
 30
0.0
 10
80.89823311646153
 20
-30.35910938074936
 30
0.0
 10
80.89823311646153
 20
-30.35910938074936
 30
0.0
  0
HATCH
  5
78
330
41
100
AcDbEntity
  8
_U_30EC_U_30A4_U_30E4_U_30
 62
     7
100
AcDbHatch
 10
0.0
 20
0.0
 30
0.0
210
0.0
220
0.0
230
1.0
  2
SOLID
 70
     1
 71
     0
 91
        1
 92
        1
 93
        1
 72
     4
 94
        3
 73
     0
 74
     1
 95
       29
 96
       25
 40
0.0
 40
0.0
 40
0.0
 40
0.0
 40
1.0
 40
1.0
 40
1.0
 40
2.0
 40
2.0
 40
2.0
 40
3.0
 40
3.0
 40
3.0
 40
4.0
 40
4.0
 40
4.0
 40
5.0
 40
5.0
 40
5.0
 40
6.0
 40
6.0
 40
6.0
 40
7.0
 40
7.0
 40
7.0
 40
8.0
 40
8.0
 40
8.0
 40
8.0
 10
80.89823311646153
 20
-30.35910938074936
 10
80.89823311646153
 20
-30.35910938074936
 10
80.89823311646153
 20
-53.37681196755842
 10
80.89823311646153
 20
-53.37681196755842
 10
80.89823311646153
 20
-56.10130354492579
 10
80.80766317935692
 20
-57.00885128202753
 10
80.44353506487894
 20
-57.87203823360933
 10
79.58219647936058
 20
-60.05126182228951
 10
78.12938075357293
 20
-60.64089059649664
 10
73.9982826020013
 20
-60.64089059649664
 10
73.9982826020013
 20
-60.64089059649664
 10
73.9982826020013
 20
-56.46358329334163
 10
73.9982826020013
 20
-56.46358329334163
 10
73.9982826020013
 20
-56.46358329334163
 10
74.3162015648972
 20
-56.46358329334163
 10
74.3162015648972
 20
-56.46358329334163
 10
76.1312970390994
 20
-56.46358329334163
 10
76.67656502778529
 20
-55.8739545191345
 10
76.67656502778529
 20
-53.83151001914101
 10
76.67656502778529
 20
-53.83151001914101
 10
76.67656502778529
 20
-30.35910938074936
 10
76.67656502778529
 20
-30.35910938074936
 10
76.67656502778529
 20
-30.35910938074936
 10
80.89823311646153
 20
-30.35910938074936
 10
80.89823311646153
 20
-30.35910938074936
 97
        0
 75
     2
 76
     1
 98
        0
  0
SPLINE
  5
79
330
41
100
AcDbEntity
  8
_U_30EC_U_30A4_U_30E4_U_30
100
AcDbSpline
210
0.0
220
0.0
230
1.0
 70
    11
 71
     3
 72
    53
 73
    49
 74
     0
 42
0.0000000001
 43
0.0000000001
 12
1.0
 22
0.0
 32
0.0
 13
1.0
 23
0.0
 33
0.0
 40
0.0
 40
0.0
 40
0.0
 40
0.0
 40
1.0
 40
1.0
 40
1.0
 40
2.0
 40
2.0
 40
2.0
 40
3.0
 40
3.0
 40
3.0
 40
4.0
 40
4.0
 40
4.0
 40
5.0
 40
5.0
 40
5.0
 40
6.0
 40
6.0
 40
6.0
 40
7.0
 40
7.0
 40
7.0
 40
8.0
 40
8.0
 40
8.0
 40
9.0
 40
9.0
 40
9.0
 40
10.0
 40
10.0
 40
10.0
 40
11.0
 40
11.0
 40
11.0
 40
12.0
 40
12.0
 40
12.0
 40
13.0
 40
13.0
 40
13.0
 40
14.0
 40
14.0
 40
14.0
 40
15.0
 40
15.0
 40
15.0
 40
16.0
 40
16.0
 40
16.0
 40
16.0
 10
91.93482688068113
 20
-38.07603769520608
 30
0.0
 10
91.98103603226579
 20
-37.48640892099991
 30
0.0
 10
91.98103603226579
 20
-37.21469910968836
 30
0.0
 10
91.98103603226579
 20
-36.85057099520973
 30
0.0
 10
91.98103603226579
 20
-34.76191734363223
 30
0.0
 10
91.48197719516199
 20
-33.85436960653081
 30
0.0
 10
90.34708043227023
 20
-33.85436960653081
 30
0.0
 10
89.80181244358432
 20
-33.85436960653081
 30
0.0
 10
89.3027536064818
 20
-34.17228856942574
 30
0.0
 10
89.02919542910713
 20
-34.62698662100833
 30
0.0
 10
88.80184640331584
 20
-34.98926636942352
 30
0.0
 10
88.75748561779461
 20
-35.48832520652605
 30
0.0
 10
88.75748561779461
 20
-36.71564027258584
 30
0.0
 10
88.75748561779461
 20
-36.71564027258584
 30
0.0
 10
88.75748561779461
 20
-43.43445091283718
 30
0.0
 10
88.75748561779461
 20
-43.43445091283718
 30
0.0
 10
89.93674316620759
 20
-42.16277506125746
 30
0.0
 10
90.84613926937276
 20
-41.66371622415461
 30
0.0
 10
92.07160596936912
 20
-41.66371622415461
 30
0.0
 10
93.29707266936546
 20
-41.66371622415461
 30
0.0
 10
94.4319694322585
 20
-42.25334499836109
 30
0.0
 10
95.15837729515232
 20
-43.25331103862958
 30
0.0
 10
96.06592503225276
 20
-44.5231385241462
 30
0.0
 10
96.29327405804406
 20
-45.74860522414254
 30
0.0
 10
96.29327405804406
 20
-49.24571381598743
 30
0.0
 10
96.29327405804406
 20
-49.24571381598743
 30
0.0
 10
96.29327405804406
 20
-54.33056885624354
 30
0.0
 10
96.29327405804406
 20
-54.33056885624354
 30
0.0
 10
96.29327405804406
 20
-58.55223694491849
 30
0.0
 10
94.02348053225928
 20
-61.09558864807923
 30
0.0
 10
90.30087128068686
 20
-61.09558864807923
 30
0.0
 10
86.75940190332106
 20
-61.09558864807923
 30
0.0
 10
84.53581752911967
 20
-58.59844609650315
 30
0.0
 10
84.53581752911967
 20
-54.64848781913815
 30
0.0
 10
84.53581752911967
 20
-54.64848781913815
 30
0.0
 10
84.53581752911967
 20
-36.17037228389961
 30
0.0
 10
84.53581752911967
 20
-36.17037228389961
 30
0.0
 10
84.53581752911967
 20
-32.35719309522322
 30
0.0
 10
86.75940190332106
 20
-29.90441132916709
 30
0.0
 10
90.21030134358226
 20
-29.90441132916709
 30
0.0
 10
92.48009486936832
 20
-29.90441132916709
 30
0.0
 10
94.3413994951539
 20
-31.08551724364318
 30
0.0
 10
95.24894723225563
 20
-33.08360095811705
 30
0.0
 10
95.74800606935815
 20
-34.12607941784236
 30
0.0
 10
95.93099430962951
 20
-35.53453435810975
 30
0.0
 10
95.93099430962951
 20
-38.07603769520608
 30
0.0
 10
95.93099430962951
 20
-38.07603769520608
 30
0.0
 10
91.93482688068113
 20
-38.07603769520608
 30
0.0
 10
91.93482688068113
 20
-38.07603769520608
 30
0.0
  0
SPLINE
  5
7A
330
41
100
AcDbEntity
  8
_U_30EC_U_30A4_U_30E4_U_30
100
AcDbSpline
210
0.0
220
0.0
230
1.0
 70
    11
 71
     3
 72
    23
 73
    19
 74
     0
 42
0.0000000001
 43
0.0000000001
 12
1.0
 22
0.0
 32
0.0
 13
1.0
 23
0.0
 33
0.0
 40
0.0
 40
0.0
 40
0.0
 40
0.0
 40
1.0
 40
1.0
 40
1.0
 40
2.0
 40
2.0
 40
2.0
 40
3.0
 40
3.0
 40
3.0
 40
4.0
 40
4.0
 40
4.0
 40
5.0
 40
5.0
 40
5.0
 40
6.0
 40
6.0
 40
6.0
 40
6.0
 10
88.75748561779461
 20
-55.32868653044859
 30
0.0
 10
88.75748561779461
 20
-56.37301335623702
 30
0.0
 10
89.43768432910505
 20
-57.14563037071551
 30
0.0
 10
90.39144121779017
 20
-57.14563037071551
 30
0.0
 10
91.52633798068321
 20
-57.14563037071551
 30
0.0
 10
92.07160596936912
 20
-56.41922250782169
 30
0.0
 10
92.07160596936912
 20
-54.96640678203404
 30
0.0
 10
92.07160596936912
 20
-54.96640678203404
 30
0.0
 10
92.07160596936912
 20
-48.42873601598965
 30
0.0
 10
92.07160596936912
 20
-48.42873601598965
 30
0.0
 10
92.07160596936912
 20
-45.93159346441357
 30
0.0
 10
91.75368700647451
 20
-45.20518560151976
 30
0.0
 10
90.66315102910141
 20
-45.20518560151976
 30
0.0
 10
90.02916146937562
 20
-45.20518560151976
 30
0.0
 10
89.3027536064818
 20
-45.61367450151864
 30
0.0
 10
88.75748561779461
 20
-46.29387321282877
 30
0.0
 10
88.75748561779461
 20
-46.29387321282877
 30
0.0
 10
88.75748561779461
 20
-55.32868653044859
 30
0.0
 10
88.75748561779461
 20
-55.32868653044859
 30
0.0
  0
HATCH
  5
7B
330
41
100
AcDbEntity
  8
_U_30EC_U_30A4_U_30E4_U_30
 62
     7
100
AcDbHatch
 10
0.0
 20
0.0
 30
0.0
210
0.0
220
0.0
230
1.0
  2
SOLID
 70
     1
 71
     0
 91
        2
 92
        1
 93
        1
 72
     4
 94
        3
 73
     0
 74
     1
 95
       53
 96
       49
 40
0.0
 40
0.0
 40
0.0
 40
0.0
 40
1.0
 40
1.0
 40
1.0
 40
2.0
 40
2.0
 40
2.0
 40
3.0
 40
3.0
 40
3.0
 40
4.0
 40
4.0
 40
4.0
 40
5.0
 40
5.0
 40
5.0
 40
6.0
 40
6.0
 40
6.0
 40
7.0
 40
7.0
 40
7.0
 40
8.0
 40
8.0
 40
8.0
 40
9.0
 40
9.0
 40
9.0
 40
10.0
 40
10.0
 40
10.0
 40
11.0
 40
11.0
 40
11.0
 40
12.0
 40
12.0
 40
12.0
 40
13.0
 40
13.0
 40
13.0
 40
14.0
 40
14.0
 40
14.0
 40
15.0
 40
15.0
 40
15.0
 40
16.0
 40
16.0
 40
16.0
 40
16.0
 10
91.93482688068113
 20
-38.07603769520608
 10
91.98103603226579
 20
-37.48640892099991
 10
91.98103603226579
 20
-37.21469910968836
 10
91.98103603226579
 20
-36.85057099520973
 10
91.98103603226579
 20
-34.76191734363223
 10
91.48197719516199
 20
-33.85436960653081
 10
90.34708043227023
 20
-33.85436960653081
 10
89.80181244358432
 20
-33.85436960653081
 10
89.3027536064818
 20
-34.17228856942574
 10
89.02919542910713
 20
-34.62698662100833
 10
88.80184640331584
 20
-34.98926636942352
 10
88.75748561779461
 20
-35.48832520652605
 10
88.75748561779461
 20
-36.71564027258584
 10
88.75748561779461
 20
-36.71564027258584
 10
88.75748561779461
 20
-43.43445091283718
 10
88.75748561779461
 20
-43.43445091283718
 10
89.93674316620759
 20
-42.16277506125746
 10
90.84613926937276
 20
-41.66371622415461
 10
92.07160596936912
 20
-41.66371622415461
 10
93.29707266936546
 20
-41.66371622415461
 10
94.4319694322585
 20
-42.25334499836109
 10
95.15837729515232
 20
-43.25331103862958
 10
96.06592503225276
 20
-44.5231385241462
 10
96.29327405804406
 20
-45.74860522414254
 10
96.29327405804406
 20
-49.24571381598743
 10
96.29327405804406
 20
-49.24571381598743
 10
96.29327405804406
 20
-54.33056885624354
 10
96.29327405804406
 20
-54.33056885624354
 10
96.29327405804406
 20
-58.55223694491849
 10
94.02348053225928
 20
-61.09558864807923
 10
90.30087128068686
 20
-61.09558864807923
 10
86.75940190332106
 20
-61.09558864807923
 10
84.53581752911967
 20
-58.59844609650315
 10
84.53581752911967
 20
-54.64848781913815
 10
84.53581752911967
 20
-54.64848781913815
 10
84.53581752911967
 20
-36.17037228389961
 10
84.53581752911967
 20
-36.17037228389961
 10
84.53581752911967
 20
-32.35719309522322
 10
86.75940190332106
 20
-29.90441132916709
 10
90.21030134358226
 20
-29.90441132916709
 10
92.48009486936832
 20
-29.90441132916709
 10
94.3413994951539
 20
-31.08551724364318
 10
95.24894723225563
 20
-33.08360095811705
 10
95.74800606935815
 20
-34.12607941784236
 10
95.93099430962951
 20
-35.53453435810975
 10
95.93099430962951
 20
-38.07603769520608
 10
95.93099430962951
 20
-38.07603769520608
 10
91.93482688068113
 20
-38.07603769520608
 10
91.93482688068113
 20
-38.07603769520608
 97
        0
 92
        1
 93
        1
 72
     4
 94
        3
 73
     0
 74
     1
 95
       23
 96
       19
 40
0.0
 40
0.0
 40
0.0
 40
0.0
 40
1.0
 40
1.0
 40
1.0
 40
2.0
 40
2.0
 40
2.0
 40
3.0
 40
3.0
 40
3.0
 40
4.0
 40
4.0
 40
4.0
 40
5.0
 40
5.0
 40
5.0
 40
6.0
 40
6.0
 40
6.0
 40
6.0
 10
88.75748561779461
 20
-55.32868653044859
 10
88.75748561779461
 20
-56.37301335623702
 10
89.43768432910505
 20
-57.14563037071551
 10
90.39144121779017
 20
-57.14563037071551
 10
91.52633798068321
 20
-57.14563037071551
 10
92.07160596936912
 20
-56.41922250782169
 10
92.07160596936912
 20
-54.96640678203404
 10
92.07160596936912
 20
-54.96640678203404
 10
92.07160596936912
 20
-48.42873601598965
 10
92.07160596936912
 20
-48.42873601598965
 10
92.07160596936912
 20
-45.93159346441357
 10
91.75368700647451
 20
-45.20518560151976
 10
90.66315102910141
 20
-45.20518560151976
 10
90.02916146937562
 20
-45.20518560151976
 10
89.3027536064818
 20
-45.61367450151864
 10
88.75748561779461
 20
-46.29387321282877
 10
88.75748561779461
 20
-46.29387321282877
 10
88.75748561779461
 20
-55.32868653044859
 10
88.75748561779461
 20
-55.32868653044859
 97
        0
 75
     2
 76
     1
 98
        0
  0
SPLINE
  5
7C
330
41
100
AcDbEntity
  8
_U_30EC_U_30A4_U_30E4_U_30
100
AcDbSpline
210
0.0
220
0.0
230
1.0
 70
    11
 71
     3
 72
    35
 73
    31
 74
     0
 42
0.0000000001
 43
0.0000000001
 12
1.0
 22
0.0
 32
0.0
 13
1.0
 23
0.0
 33
0.0
 40
0.0
 40
0.0
 40
0.0
 40
0.0
 40
1.0
 40
1.0
 40
1.0
 40
2.0
 40
2.0
 40
2.0
 40
3.0
 40
3.0
 40
3.0
 40
4.0
 40
4.0
 40
4.0
 40
5.0
 40
5.0
 40
5.0
 40
6.0
 40
6.0
 40
6.0
 40
7.0
 40
7.0
 40
7.0
 40
8.0
 40
8.0
 40
8.0
 40
9.0
 40
9.0
 40
9.0
 40
10.0
 40
10.0
 40
10.0
 40
10.0
 10
99.88834605124569
 20
-38.03167690968582
 30
0.0
 10
99.88834605124569
 20
-34.4439983807373
 30
0.0
 10
100.0251251399337
 20
-33.67322973232321
 30
0.0
 10
100.8421029399308
 20
-32.35719309522322
 30
0.0
 10
101.8420689801993
 20
-30.85816821785189
 30
0.0
 10
103.7477343915061
 20
-29.90441132916709
 30
0.0
 10
105.8825971946676
 20
-29.90441132916709
 30
0.0
 10
108.0156116317644
 20
-29.90441132916709
 30
0.0
 10
109.9231254091347
 20
-30.85816821785189
 30
0.0
 10
110.9212430833397
 20
-32.35719309522322
 30
0.0
 10
111.7382208833381
 20
-33.67322973232321
 30
0.0
 10
111.8749999720248
 20
-34.4439983807373
 30
0.0
 10
111.8749999720248
 20
-38.03167690968582
 30
0.0
 10
111.8749999720248
 20
-38.03167690968582
 30
0.0
 10
111.8749999720248
 20
-52.92211391597584
 30
0.0
 10
111.8749999720248
 20
-52.92211391597584
 30
0.0
 10
111.8749999720248
 20
-56.55415323044495
 30
0.0
 10
111.7382208833381
 20
-57.28056109333877
 30
0.0
 10
110.9212430833397
 20
-58.59844609650315
 30
0.0
 10
109.9231254091347
 20
-60.14183175939411
 30
0.0
 10
108.0156116317644
 20
-61.09558864807923
 30
0.0
 10
105.8825971946676
 20
-61.09558864807923
 30
0.0
 10
103.7477343915061
 20
-61.09558864807923
 30
0.0
 10
101.8420689801993
 20
-60.14183175939411
 30
0.0
 10
100.8421029399308
 20
-58.59844609650315
 30
0.0
 10
100.0251251399337
 20
-57.28056109333877
 30
0.0
 10
99.88834605124569
 20
-56.509792444925
 30
0.0
 10
99.88834605124569
 20
-52.92211391597584
 30
0.0
 10
99.88834605124569
 20
-52.92211391597584
 30
0.0
 10
99.88834605124569
 20
-38.03167690968582
 30
0.0
 10
99.88834605124569
 20
-38.03167690968582
 30
0.0
  0
SPLINE
  5
7D
330
41
100
AcDbEntity
  8
_U_30EC_U_30A4_U_30E4_U_30
100
AcDbSpline
210
0.0
220
0.0
230
1.0
 70
    11
 71
     3
 72
    23
 73
    19
 74
     0
 42
0.0000000001
 43
0.0000000001
 12
1.0
 22
0.0
 32
0.0
 13
1.0
 23
0.0
 33
0.0
 40
0.0
 40
0.0
 40
0.0
 40
0.0
 40
1.0
 40
1.0
 40
1.0
 40
2.0
 40
2.0
 40
2.0
 40
3.0
 40
3.0
 40
3.0
 40
4.0
 40
4.0
 40
4.0
 40
5.0
 40
5.0
 40
5.0
 40
6.0
 40
6.0
 40
6.0
 40
6.0
 10
107.6533318833499
 20
-36.30715137258694
 30
0.0
 10
107.6533318833499
 20
-34.58077746942463
 30
0.0
 10
107.1524246801839
 20
-33.85436960653081
 30
0.0
 10
105.8825971946676
 20
-33.85436960653081
 30
0.0
 10
104.6552821286078
 20
-33.85436960653081
 30
0.0
 10
104.1118625059854
 20
-34.58077746942463
 30
0.0
 10
104.1118625059854
 20
-36.30715137258694
 30
0.0
 10
104.1118625059854
 20
-36.30715137258694
 30
0.0
 10
104.1118625059854
 20
-54.69284860465937
 30
0.0
 10
104.1118625059854
 20
-54.69284860465937
 30
0.0
 10
104.1118625059854
 20
-56.41922250782169
 30
0.0
 10
104.6109213430879
 20
-57.14563037071551
 30
0.0
 10
105.8825971946676
 20
-57.14563037071551
 30
0.0
 10
107.108063894664
 20
-57.14563037071551
 30
0.0
 10
107.6533318833499
 20
-56.41922250782169
 30
0.0
 10
107.6533318833499
 20
-54.69284860465937
 30
0.0
 10
107.6533318833499
 20
-54.69284860465937
 30
0.0
 10
107.6533318833499
 20
-36.30715137258694
 30
0.0
 10
107.6533318833499
 20
-36.30715137258694
 30
0.0
  0
HATCH
  5
7E
330
41
100
AcDbEntity
  8
_U_30EC_U_30A4_U_30E4_U_30
 62
     7
100
AcDbHatch
 10
0.0
 20
0.0
 30
0.0
210
0.0
220
0.0
230
1.0
  2
SOLID
 70
     1
 71
     0
 91
        2
 92
        1
 93
        1
 72
     4
 94
        3
 73
     0
 74
     1
 95
       35
 96
       31
 40
0.0
 40
0.0
 40
0.0
 40
0.0
 40
1.0
 40
1.0
 40
1.0
 40
2.0
 40
2.0
 40
2.0
 40
3.0
 40
3.0
 40
3.0
 40
4.0
 40
4.0
 40
4.0
 40
5.0
 40
5.0
 40
5.0
 40
6.0
 40
6.0
 40
6.0
 40
7.0
 40
7.0
 40
7.0
 40
8.0
 40
8.0
 40
8.0
 40
9.0
 40
9.0
 40
9.0
 40
10.0
 40
10.0
 40
10.0
 40
10.0
 10
99.88834605124569
 20
-38.03167690968582
 10
99.88834605124569
 20
-34.4439983807373
 10
100.0251251399337
 20
-33.67322973232321
 10
100.8421029399308
 20
-32.35719309522322
 10
101.8420689801993
 20
-30.85816821785189
 10
103.7477343915061
 20
-29.90441132916709
 10
105.8825971946676
 20
-29.90441132916709
 10
108.0156116317644
 20
-29.90441132916709
 10
109.9231254091347
 20
-30.85816821785189
 10
110.9212430833397
 20
-32.35719309522322
 10
111.7382208833381
 20
-33.67322973232321
 10
111.8749999720248
 20
-34.4439983807373
 10
111.8749999720248
 20
-38.03167690968582
 10
111.8749999720248
 20
-38.03167690968582
 10
111.8749999720248
 20
-52.92211391597584
 10
111.8749999720248
 20
-52.92211391597584
 10
111.8749999720248
 20
-56.55415323044495
 10
111.7382208833381
 20
-57.28056109333877
 10
110.9212430833397
 20
-58.59844609650315
 10
109.9231254091347
 20
-60.14183175939411
 10
108.0156116317644
 20
-61.09558864807923
 10
105.8825971946676
 20
-61.09558864807923
 10
103.7477343915061
 20
-61.09558864807923
 10
101.8420689801993
 20
-60.14183175939411
 10
100.8421029399308
 20
-58.59844609650315
 10
100.0251251399337
 20
-57.28056109333877
 10
99.88834605124569
 20
-56.509792444925
 10
99.88834605124569
 20
-52.92211391597584
 10
99.88834605124569
 20
-52.92211391597584
 10
99.88834605124569
 20
-38.03167690968582
 10
99.88834605124569
 20
-38.03167690968582
 97
        0
 92
        1
 93
        1
 72
     4
 94
        3
 73
     0
 74
     1
 95
       23
 96
       19
 40
0.0
 40
0.0
 40
0.0
 40
0.0
 40
1.0
 40
1.0
 40
1.0
 40
2.0
 40
2.0
 40
2.0
 40
3.0
 40
3.0
 40
3.0
 40
4.0
 40
4.0
 40
4.0
 40
5.0
 40
5.0
 40
5.0
 40
6.0
 40
6.0
 40
6.0
 40
6.0
 10
107.6533318833499
 20
-36.30715137258694
 10
107.6533318833499
 20
-34.58077746942463
 10
107.1524246801839
 20
-33.85436960653081
 10
105.8825971946676
 20
-33.85436960653081
 10
104.6552821286078
 20
-33.85436960653081
 10
104.1118625059854
 20
-34.58077746942463
 10
104.1118625059854
 20
-36.30715137258694
 10
104.1118625059854
 20
-36.30715137258694
 10
104.1118625059854
 20
-54.69284860465937
 10
104.1118625059854
 20
-54.69284860465937
 10
104.1118625059854
 20
-56.41922250782169
 10
104.6109213430879
 20
-57.14563037071551
 10
105.8825971946676
 20
-57.14563037071551
 10
107.108063894664
 20
-57.14563037071551
 10
107.6533318833499
 20
-56.41922250782169
 10
107.6533318833499
 20
-54.69284860465937
 10
107.6533318833499
 20
-54.69284860465937
 10
107.6533318833499
 20
-36.30715137258694
 10
107.6533318833499
 20
-36.30715137258694
 97
        0
 75
     2
 76
     1
 98
        0
  0
ENDBLK
  5
44
330
41
100
AcDbEntity
  8
0
100
AcDbBlockEnd
  0
ENDSEC
  0
SECTION
  2
ENTITIES
  0
INSERT
  5
42
330
1F
100
AcDbEntity
  8
_U_30EC_U_30A4_U_30E4_U_30
100
AcDbBlockReference
  2
BLOCK_2
 10
0.0
 20
0.0
 30
0.0
  0
ENDSEC
  0
SECTION
  2
OBJECTS
  0
DICTIONARY
  5
C
330
0
100
AcDbDictionary
  3
ACAD_GROUP
350
D
  3
ACAD_LAYOUT
350
1A
  3
ACAD_MATERIAL
350
3B
  3
ACAD_MLEADERSTYLE
350
A1
  3
ACAD_MLINESTYLE
350
17
  3
ACAD_PLOTSETTINGS
350
19
  3
ACAD_VISUALSTYLE
350
2A
  3
ACDBHEADERROUNDTRIPXREC
350
7F
  3
ACDBVARIABLEDICTIONARY
350
9F
  0
DICTIONARY
  5
D
102
{ACAD_REACTORS
330
C
102
}
330
C
100
AcDbDictionary
  0
DICTIONARY
  5
1A
102
{ACAD_REACTORS
330
C
102
}
330
C
100
AcDbDictionary
  0
DICTIONARY
  5
3B
102
{ACAD_REACTORS
330
C
102
}
330
C
100
AcDbDictionary
  3
BYBLOCK
350
3D
  3
BYLAYER
350
3C
  3
GLOBAL
350
3E
  0
DICTIONARY
  5
A1
102
{ACAD_REACTORS
330
C
102
}
330
C
100
AcDbDictionary
  0
DICTIONARY
  5
17
102
{ACAD_REACTORS
330
C
102
}
330
C
100
AcDbDictionary
  3
STANDARD
350
18
  0
DICTIONARY
  5
19
102
{ACAD_REACTORS
330
C
102
}
330
C
100
AcDbDictionary
  0
DICTIONARY
  5
2A
102
{ACAD_REACTORS
330
C
102
}
330
C
100
AcDbDictionary
  3
2DWIREFRAME
350
2F
  3
3D_HIDDEN
350
31
  3
3DWIREFRAME
350
30
  3
BASIC
350
32
  3
BRIGHTEN
350
36
  3
COLORCHANGE
350
3A
  3
CONCEPTUAL
350
34
  3
DIM
350
35
  3
FACEPATTERN
350
39
  3
FLAT
350
2B
  3
FLATWITHEDGES
350
2C
  3
GOURAUD
350
2D
  3
GOURAUDWITHEDGES
350
2E
  3
LINEPATTERN
350
38
  3
REALISTIC
350
33
  3
THICKEN
350
37
  0
DICTIONARY
  5
7F
102
{ACAD_REACTORS
330
C
102
}
330
C
100
AcDbDictionary
  3
CEPSNTYPE
350
88
  3
DIMSTYLEDATA
350
9E
  3
FINGERPRINTGUID
350
89
  3
HYPERLINKBASE
350
82
  3
INSUNITS
350
87
  3
LAYOUTDICT
350
84
  3
LWETCUNION
350
86
  3
PLOTSETDICT
350
85
  3
PSVPSCALE
350
8B
  3
PUCSBASE
350
8E
  3
PUCSORGBACK
350
94
  3
PUCSORGBOTTOM
350
90
  3
PUCSORGFRONT
350
93
  3
PUCSORGLEFT
350
91
  3
PUCSORGRIGHT
350
92
  3
PUCSORGTOP
350
8F
  3
PUCSORTHOREF
350
8C
  3
PUCSORTHOVIEW
350
8D
  3
STYLESHEET
350
83
  3
TSTACKALIGN
350
80
  3
TSTACKSIZE
350
81
  3
UCSBASE
350
97
  3
UCSORGBACK
350
9D
  3
UCSORGBOTTOM
350
99
  3
UCSORGFRONT
350
9C
  3
UCSORGLEFT
350
9A
  3
UCSORGRIGHT
350
9B
  3
UCSORGTOP
350
98
  3
UCSORTHOREF
350
95
  3
UCSORTHOVIEW
350
96
  3
VERSIONGUID
350
8A
  0
DICTIONARY
  5
9F
102
{ACAD_REACTORS
330
C
102
}
330
C
100
AcDbDictionary
  3
DIMASSOC
350
A2
  3
HIDETEXT
350
A3
  0
MATERIAL
  5
3D
102
{ACAD_REACTORS
330
3B
102
}
102
{ACAD_XDICTIONARY
360
A6
102
}
330
3B
100
AcDbMaterial
  1
ByBlock
  0
MATERIAL
  5
3C
102
{ACAD_REACTORS
330
3B
102
}
102
{ACAD_XDICTIONARY
360
A4
102
}
330
3B
100
AcDbMaterial
  1
ByLayer
  0
MATERIAL
  5
3E
102
{ACAD_REACTORS
330
3B
102
}
102
{ACAD_XDICTIONARY
360
A8
102
}
330
3B
100
AcDbMaterial
  1
Global
  0
MLINESTYLE
  5
18
102
{ACAD_REACTORS
330
17
102
}
330
17
100
AcDbMlineStyle
  2
Standard
 70
     0
  3

 62
   256
 51
90.0
 52
90.0
 71
     2
 49
0.5
 62
   256
  6
BYLAYER
 49
-0.5
 62
   256
  6
BYLAYER
  0
ACAD_PROXY_OBJECT
  5
2F
102
{ACAD_REACTORS
330
2A
102
}
330
2A
100
AcDbProxyObject
 90
      499
 91
      501
 93
      436
310
42CC9915DA5C99599C985B595049028333333333333E3BF0000000000000FB0107901411070040501600405405064090741402480A0340
1001
ACAD
1000
AcDbSavedByObjectVersion
1070
     0
  0
ACAD_PROXY_OBJECT
  5
31
102
{ACAD_REACTORS
330
2A
102
}
330
2A
100
AcDbProxyObject
 90
      499
 91
      501
 93
      500
310
424CD108121A5919195B90640502408333333333333E3BF0000000000000FB01079024090700405020000000000001110200405405064090740C02480A0340
1001
ACAD
1000
AcDbSavedByObjectVersion
1070
     0
  0
ACAD_PROXY_OBJECT
  5
30
102
{ACAD_REACTORS
330
2A
102
}
330
2A
100
AcDbProxyObject
 90
      499
 91
      501
 93
      436
310
42CCD915DA5C99599C985B595059028333333333333E3BF0000000000000FB0107901411070040501600405405064090741402480A0340
1001
ACAD
1000
AcDbSavedByObjectVersion
1070
     0
  0
ACAD_PROXY_OBJECT
  5
32
102
{ACAD_REACTORS
330
2A
102
}
330
2A
100
AcDbProxyObject
 90
      499
 91
      501
 93
      388
310
4150985CDA58D07406404333333333333E3BF0000000000000FB0107A41107004050150841D405064090741402480A0350
1001
ACAD
1000
AcDbSavedByObjectVersion
1070
     0
  0
ACAD_PROXY_OBJECT
  5
36
102
{ACAD_REACTORS
330
2A
102
}
330
2A
100
AcDbProxyObject
 90
      499
 91
      501
 93
      428
310
42109C9A59DA1D195B90C409028333333333333E3BF0000000000000FB010790141107004050150841D405064090741402480A029950
1001
ACAD
1000
AcDbSavedByObjectVersion
1070
     0
  0
ACAD_PROXY_OBJECT
  5
3A
102
{ACAD_REACTORS
330
2A
102
}
330
2A
100
AcDbProxyObject
 90
      499
 91
      501
 93
      452
310
42D0DBDB1BDC90DA185B99D95104090240C333333333333E3BF0000000000000FB0108901411070040501508421405064090741402480A0350
1001
ACAD
1000
AcDbSavedByObjectVersion
1070
     0
  0
ACAD_PROXY_OBJECT
  5
34
102
{ACAD_REACTORS
330
2A
102
}
330
2A
100
AcDbProxyObject
 90
      499
 91
      501
 93
      500
310
4290DBDB98D95C1D1D585B10940D028333333333333E3BF0000000000000FB0107902409070040501000000000000111010841D405064090740C02480A0340
1001
ACAD
1000
AcDbSavedByObjectVersion
1070
     0
  0
ACAD_PROXY_OBJECT
  5
35
102
{ACAD_REACTORS
330
2A
102
}
330
2A
100
AcDbProxyObject
 90
      499
 91
      501
 93
      412
310
40D11A5B50B409028333333333333E3BF0000000000000FB010790141107004050150841D405064090741402480A02677FFFFFD0
1001
ACAD
1000
AcDbSavedByObjectVersion
1070
     0
  0
ACAD_PROXY_OBJECT
  5
39
102
{ACAD_REACTORS
330
2A
102
}
330
2A
100
AcDbProxyObject
 90
      499
 91
      501
 93
      444
310
42D19858D95C185D1D195C9B90F409028333333333333E3BF0000000000000FB010790141107004050150841D405064090741402480A0350
1001
ACAD
1000
AcDbSavedByObjectVersion
1070
     0
  0
ACAD_PROXY_OBJECT
  5
2B
102
{ACAD_REACTORS
330
2A
102
}
330
2A
100
AcDbProxyObject
 90
      499
 91
      501
 93
      388
310
41119B185D240901404333333333333E3BF0000000000000F9010740A41107004050150841D405064090741402480A1B50
1001
ACAD
1000
AcDbSavedByObjectVersion
1070
     0
  0
ACAD_PROXY_OBJECT
  5
2C
102
{ACAD_REACTORS
330
2A
102
}
330
2A
100
AcDbProxyObject
 90
      499
 91
      501
 93
      476
310
43519B185D15DA5D1A115919D95CD0140901404333333333333E3BF0000000000000F9010740901411070040501600405405064090741402480A1B50
1001
ACAD
1000
AcDbSavedByObjectVersion
1070
     0
  0
ACAD_PROXY_OBJECT
  5
2D
102
{ACAD_REACTORS
330
2A
102
}
330
2A
100
AcDbProxyObject
 90
      499
 91
      501
 93
      412
310
41D1DBDD5C985D5910240902404333333333333E3BF0000000000000F9010740A411070040501641D405064090741402480A1B50
1001
ACAD
1000
AcDbSavedByObjectVersion
1070
     0
  0
ACAD_PROXY_OBJECT
  5
2E
102
{ACAD_REACTORS
330
2A
102
}
330
2A
100
AcDbProxyObject
 90
      499
 91
      501
 93
      500
310
4411DBDD5C985D5915DA5D1A115919D95CD0340902404333333333333E3BF0000000000000F9010740901411070040501600405405064090741402480A1B50
1001
ACAD
1000
AcDbSavedByObjectVersion
1070
     0
  0
ACAD_PROXY_OBJECT
  5
38
102
{ACAD_REACTORS
330
2A
102
}
330
2A
100
AcDbProxyObject
 90
      499
 91
      501
 93
      444
310
42D31A5B995C185D1D195C9B90E409028333333333333E3BF0000000000000FB010790141107004050750841D405064090741402483A0350
1001
ACAD
1000
AcDbSavedByObjectVersion
1070
     0
  0
ACAD_PROXY_OBJECT
  5
33
102
{ACAD_REACTORS
330
2A
102
}
330
2A
100
AcDbProxyObject
 90
      499
 91
      501
 93
      420
310
425499585B1A5CDD1A58D08409028333333333333E3BF0000000000000FB01079019070040501508421405064090741402480A1B40
1001
ACAD
1000
AcDbSavedByObjectVersion
1070
     0
  0
ACAD_PROXY_OBJECT
  5
37
102
{ACAD_REACTORS
330
2A
102
}
330
2A
100
AcDbProxyObject
 90
      499
 91
      501
 93
      412
310
41D51A1A58DAD95B90D409028333333333333E3BF0000000000000FB010790141107004050150C41D405064090741402480A0350
1001
ACAD
1000
AcDbSavedByObjectVersion
1070
     0
  0
XRECORD
  5
88
102
{ACAD_REACTORS
330
7F
102
}
330
7F
100
AcDbXrecord
 90
        0
  0
XRECORD
  5
9E
102
{ACAD_REACTORS
330
7F
102
}
330
7F
100
AcDbXrecord
1000
DSTYLE
1002
{
1070
   340
340
11
1002
}
  0
XRECORD
  5
89
102
{ACAD_REACTORS
330
7F
102
}
330
7F
100
AcDbXrecord
  1
{EF26B598-C455-4597-88E8-CBA82B2F2F6F}
  0
XRECORD
  5
82
102
{ACAD_REACTORS
330
7F
102
}
330
7F
100
AcDbXrecord
  1

  0
XRECORD
  5
87
102
{ACAD_REACTORS
330
7F
102
}
330
7F
100
AcDbXrecord
 90
        4
  0
XRECORD
  5
84
102
{ACAD_REACTORS
330
7F
102
}
330
7F
100
AcDbXrecord
340
1A
  0
XRECORD
  5
86
102
{ACAD_REACTORS
330
7F
102
}
330
7F
100
AcDbXrecord
 90
    10269
  0
XRECORD
  5
85
102
{ACAD_REACTORS
330
7F
102
}
330
7F
100
AcDbXrecord
340
19
  0
XRECORD
  5
8B
102
{ACAD_REACTORS
330
7F
102
}
330
7F
100
AcDbXrecord
 40
0.0
  0
XRECORD
  5
8E
102
{ACAD_REACTORS
330
7F
102
}
330
7F
100
AcDbXrecord
340
0
  0
XRECORD
  5
94
102
{ACAD_REACTORS
330
7F
102
}
330
7F
100
AcDbXrecord
 10
0.0
 20
0.0
 30
0.0
  0
XRECORD
  5
90
102
{ACAD_REACTORS
330
7F
102
}
330
7F
100
AcDbXrecord
 10
0.0
 20
0.0
 30
0.0
  0
XRECORD
  5
93
102
{ACAD_REACTORS
330
7F
102
}
330
7F
100
AcDbXrecord
 10
0.0
 20
0.0
 30
0.0
  0
XRECORD
  5
91
102
{ACAD_REACTORS
330
7F
102
}
330
7F
100
AcDbXrecord
 10
0.0
 20
0.0
 30
0.0
  0
XRECORD
  5
92
102
{ACAD_REACTORS
330
7F
102
}
330
7F
100
AcDbXrecord
 10
0.0
 20
0.0
 30
0.0
  0
XRECORD
  5
8F
102
{ACAD_REACTORS
330
7F
102
}
330
7F
100
AcDbXrecord
 10
0.0
 20
0.0
 30
0.0
  0
XRECORD
  5
8C
102
{ACAD_REACTORS
330
7F
102
}
330
7F
100
AcDbXrecord
340
0
  0
XRECORD
  5
8D
102
{ACAD_REACTORS
330
7F
102
}
330
7F
100
AcDbXrecord
 70
     0
  0
XRECORD
  5
83
102
{ACAD_REACTORS
330
7F
102
}
330
7F
100
AcDbXrecord
  1

  0
XRECORD
  5
80
102
{ACAD_REACTORS
330
7F
102
}
330
7F
100
AcDbXrecord
 90
        1
  0
XRECORD
  5
81
102
{ACAD_REACTORS
330
7F
102
}
330
7F
100
AcDbXrecord
 90
       70
  0
XRECORD
  5
97
102
{ACAD_REACTORS
330
7F
102
}
330
7F
100
AcDbXrecord
340
0
  0
XRECORD
  5
9D
102
{ACAD_REACTORS
330
7F
102
}
330
7F
100
AcDbXrecord
 10
0.0
 20
0.0
 30
0.0
  0
XRECORD
  5
99
102
{ACAD_REACTORS
330
7F
102
}
330
7F
100
AcDbXrecord
 10
0.0
 20
0.0
 30
0.0
  0
XRECORD
  5
9C
102
{ACAD_REACTORS
330
7F
102
}
330
7F
100
AcDbXrecord
 10
0.0
 20
0.0
 30
0.0
  0
XRECORD
  5
9A
102
{ACAD_REACTORS
330
7F
102
}
330
7F
100
AcDbXrecord
 10
0.0
 20
0.0
 30
0.0
  0
XRECORD
  5
9B
102
{ACAD_REACTORS
330
7F
102
}
330
7F
100
AcDbXrecord
 10
0.0
 20
0.0
 30
0.0
  0
XRECORD
  5
98
102
{ACAD_REACTORS
330
7F
102
}
330
7F
100
AcDbXrecord
 10
0.0
 20
0.0
 30
0.0
  0
XRECORD
  5
95
102
{ACAD_REACTORS
330
7F
102
}
330
7F
100
AcDbXrecord
340
0
  0
XRECORD
  5
96
102
{ACAD_REACTORS
330
7F
102
}
330
7F
100
AcDbXrecord
 70
     0
  0
XRECORD
  5
8A
102
{ACAD_REACTORS
330
7F
102
}
330
7F
100
AcDbXrecord
  1
{FAEB1C32-E019-11D5-929B-00C0DF256EC4}
  0
DICTIONARYVAR
  5
A2
102
{ACAD_REACTORS
330
9F
102
}
330
9F
100
DictionaryVariables
280
     0
  1
2
  0
DICTIONARYVAR
  5
A3
102
{ACAD_REACTORS
330
9F
102
}
330
9F
100
DictionaryVariables
280
     0
  1
1
  0
DICTIONARY
  5
A6
330
3D
100
AcDbDictionary
280
     1
  3
ACAD_XREC_ROUNDTRIP
360
A7
  0
DICTIONARY
  5
A4
330
3C
100
AcDbDictionary
280
     1
  3
ACAD_XREC_ROUNDTRIP
360
A5
  0
DICTIONARY
  5
A8
330
3E
100
AcDbDictionary
280
     1
  3
ACAD_XREC_ROUNDTRIP
360
A9
  0
XRECORD
  5
A7
102
{ACAD_REACTORS
330
A6
102
}
330
A6
100
AcDbXrecord
102
MATERIAL
148
0.0
149
0.0
149
0.0
 93
        0
 94
      127
282
     0
 72
     1
 77
     1
171
     1
175
     1
179
     1
273
     0
  0
XRECORD
  5
A5
102
{ACAD_REACTORS
330
A4
102
}
330
A4
100
AcDbXrecord
102
MATERIAL
148
0.0
149
0.0
149
0.0
 93
        0
 94
      127
282
     0
 72
     1
 77
     1
171
     1
175
     1
179
     1
273
     0
  0
XRECORD
  5
A9
102
{ACAD_REACTORS
330
A8
102
}
330
A8
100
AcDbXrecord
102
MATERIAL
148
0.0
149
0.0
149
0.0
 93
        0
 94
      127
282
     0
 72
     1
 77
     1
171
     1
175
     1
179
     1
273
     0
  0
ENDSEC
  0
EOF
